<svg width="32" height="27" viewBox="0 0 32 27" fill="none" xmlns="http://www.w3.org/2000/svg">
<path d="M16 7.875C16 6.68153 15.4381 5.53693 14.4379 4.69302C13.4377 3.84911 12.0812 3.375 10.6667 3.375H2.66666V20.25H12C13.0609 20.25 14.0783 20.6056 14.8284 21.2385C15.5786 21.8714 16 22.7299 16 23.625M16 7.875V23.625M16 7.875C16 6.68153 16.5619 5.53693 17.5621 4.69302C18.5623 3.84911 19.9188 3.375 21.3333 3.375H29.3333V20.25H20C18.9391 20.25 17.9217 20.6056 17.1716 21.2385C16.4214 21.8714 16 22.7299 16 23.625" stroke="#B3B3B3" stroke-width="1.6" stroke-linecap="round" stroke-linejoin="round"/>
</svg>
