<svg width="20" height="24" viewBox="0 0 20 24" fill="none" xmlns="http://www.w3.org/2000/svg">
<path d="M18.3334 16.9201V19.9201C18.3344 20.1986 18.2868 20.4743 18.1939 20.7294C18.1009 20.9846 17.9645 21.2137 17.7935 21.402C17.6225 21.5902 17.4206 21.7336 17.2007 21.8228C16.9809 21.912 16.7479 21.9452 16.5168 21.9201C13.9525 21.5857 11.4893 20.5342 9.32511 18.8501C7.31163 17.3148 5.60455 15.2663 4.32511 12.8501C2.91676 10.2413 2.04031 7.27109 1.76677 4.1801C1.74595 3.90356 1.77334 3.62486 1.84719 3.36172C1.92105 3.09859 2.03975 2.85679 2.19575 2.65172C2.35174 2.44665 2.54161 2.28281 2.75327 2.17062C2.96492 2.05843 3.19372 2.00036 3.42511 2.0001H5.92511C6.32953 1.99532 6.7216 2.16718 7.02824 2.48363C7.33488 2.80008 7.53517 3.23954 7.59177 3.7201C7.69729 4.68016 7.89298 5.62282 8.17511 6.5301C8.28723 6.88802 8.31149 7.27701 8.24503 7.65098C8.17857 8.02494 8.02416 8.36821 7.80011 8.6401L6.74177 9.9101C7.92807 12.4136 9.65549 14.4865 11.7418 15.9101L12.8001 14.6401C13.0267 14.3712 13.3127 14.1859 13.6244 14.1062C13.936 14.0264 14.2602 14.0556 14.5584 14.1901C15.3145 14.5286 16.1001 14.7635 16.9001 14.8901C17.3049 14.9586 17.6746 15.2033 17.9389 15.5776C18.2032 15.9519 18.3436 16.4297 18.3334 16.9201Z" stroke="#BCBFC6" stroke-width="1.6" stroke-linecap="round" stroke-linejoin="round"/>
</svg>
