<svg width="21" height="23" viewBox="0 0 21 23" fill="none" xmlns="http://www.w3.org/2000/svg">
<path d="M7.51625 12.9472L13.4925 16.7613M13.4837 6.23883L7.51625 10.053M18.375 4.79175C18.375 6.37957 17.1997 7.66675 15.75 7.66675C14.3003 7.66675 13.125 6.37957 13.125 4.79175C13.125 3.20393 14.3003 1.91675 15.75 1.91675C17.1997 1.91675 18.375 3.20393 18.375 4.79175ZM7.875 11.5001C7.875 13.0879 6.69975 14.3751 5.25 14.3751C3.80025 14.3751 2.625 13.0879 2.625 11.5001C2.625 9.91226 3.80025 8.62508 5.25 8.62508C6.69975 8.62508 7.875 9.91226 7.875 11.5001ZM18.375 18.2084C18.375 19.7962 17.1997 21.0834 15.75 21.0834C14.3003 21.0834 13.125 19.7962 13.125 18.2084C13.125 16.6206 14.3003 15.3334 15.75 15.3334C17.1997 15.3334 18.375 16.6206 18.375 18.2084Z" stroke="#B3B3B3" stroke-width="1.6" stroke-linecap="round" stroke-linejoin="round"/>
</svg>
