<svg width="22" height="21" viewBox="0 0 22 21" fill="none" xmlns="http://www.w3.org/2000/svg">
<g clip-path="url(#clip0_28_537)">
<path d="M0.916656 0.875H4.58332L7.03999 12.5912C7.12381 12.9941 7.3534 13.356 7.68857 13.6135C8.02374 13.8711 8.44313 14.0079 8.87332 14H17.7833C18.2135 14.0079 18.6329 13.8711 18.9681 13.6135C19.3032 13.356 19.5328 12.9941 19.6167 12.5912L21.0833 5.25H5.49999M9.16666 18.375C9.16666 18.8582 8.75625 19.25 8.24999 19.25C7.74373 19.25 7.33332 18.8582 7.33332 18.375C7.33332 17.8917 7.74373 17.5 8.24999 17.5C8.75625 17.5 9.16666 17.8917 9.16666 18.375ZM19.25 18.375C19.25 18.8582 18.8396 19.25 18.3333 19.25C17.8271 19.25 17.4167 18.8582 17.4167 18.375C17.4167 17.8917 17.8271 17.5 18.3333 17.5C18.8396 17.5 19.25 17.8917 19.25 18.375Z" stroke="white" stroke-width="1.6" stroke-linecap="round" stroke-linejoin="round"/>
</g>
<defs>
<clipPath id="clip0_28_537">
<rect width="22" height="21" fill="white"/>
</clipPath>
</defs>
</svg>
